# xmcd
#
# Track frame offsets:
#	150
#	12316
#	22294
#	36658
#	47394
#	59000
#	69742
#	80336
#	91574
#	103044
#	113169
#	123247
#	135414
#	145977
#	155666
#	167620
#
# Disc length: 2377 seconds
#
# Revision: 1
# Processed by: cddbd v1.5.2PL0 Copyright (c) Steve Scherf et al.
# Submitted via: audiograbber 1.83.01
#
DISCID=d9094710
DTITLE=Wells, Junior - 2012 - Paint the town blues (2)
DYEAR=2012
DGENRE=Blues
TTITLE0=Two-Headed Woman 
TTITLE1=Lovey Dovey Lovey One
TTITLE2=I Could Cry 
TTITLE3=Cha Cha Cha In Blues (Cut My Toe Nail) 
TTITLE4=Little By Little (I'm Losing You) 
TTITLE5=Come On In This House 
TTITLE6=You Don't Care
TTITLE7=Prison Bars All Around Me 
TTITLE8=Calling All Blues
TTITLE9=Messin' With The Kid
TTITLE10=It Hurts Me Too (When Things Go Wrong) 
TTITLE11=So Tired 
TTITLE12=I Need Me A Car 
TTITLE13=I'm A Stranger 
TTITLE14=Things I Do For You 
TTITLE15=Love Me
EXTD=
EXTT0=
EXTT1=
EXTT2=
EXTT3=
EXTT4=
EXTT5=
EXTT6=
EXTT7=
EXTT8=
EXTT9=
EXTT10=
EXTT11=
EXTT12=
EXTT13=
EXTT14=
EXTT15=
PLAYORDER=
